<mxfile host="app.diagrams.net" modified="2021-03-22T07:12:32.105Z" agent="5.0 (Windows NT 10.0; Win64; x64) AppleWebKit/537.36 (KHTML, like Gecko) Chrome/89.0.4389.90 Safari/537.36 Edg/89.0.774.57" etag="LZv42TDDJj4J4CtRlML8" version="14.4.9" type="github">
  <diagram id="C5RBs43oDa-KdzZeNtuy" name="Page-1">
    <mxGraphModel dx="1195" dy="490" grid="0" gridSize="10" guides="1" tooltips="1" connect="1" arrows="1" fold="1" page="1" pageScale="1" pageWidth="827" pageHeight="1169" math="0" shadow="0">
      <root>
        <mxCell id="WIyWlLk6GJQsqaUBKTNV-0" />
        <mxCell id="WIyWlLk6GJQsqaUBKTNV-1" parent="WIyWlLk6GJQsqaUBKTNV-0" />
        <mxCell id="fvwQdsqHaKLtyYbBZtsD-26" value="" style="rounded=0;whiteSpace=wrap;html=1;dashed=1;sketch=0;fillColor=none;dashPattern=1 2;strokeWidth=1;glass=0;shadow=0;fontSize=12;" vertex="1" parent="WIyWlLk6GJQsqaUBKTNV-1">
          <mxGeometry x="604" y="85" width="160" height="473" as="geometry" />
        </mxCell>
        <mxCell id="fvwQdsqHaKLtyYbBZtsD-12" value="" style="rounded=0;html=1;sketch=0;fillColor=none;dashed=1;strokeWidth=1;fontFamily=Verdana;fontSize=12;" vertex="1" parent="WIyWlLk6GJQsqaUBKTNV-1">
          <mxGeometry x="24" y="334" width="740" height="110" as="geometry" />
        </mxCell>
        <mxCell id="fvwQdsqHaKLtyYbBZtsD-2" value="" style="edgeStyle=orthogonalEdgeStyle;curved=0;rounded=1;sketch=0;orthogonalLoop=1;jettySize=auto;html=1;fontFamily=Verdana;fontSize=12;" edge="1" parent="WIyWlLk6GJQsqaUBKTNV-1" source="fvwQdsqHaKLtyYbBZtsD-0" target="fvwQdsqHaKLtyYbBZtsD-1">
          <mxGeometry relative="1" as="geometry" />
        </mxCell>
        <mxCell id="fvwQdsqHaKLtyYbBZtsD-0" value="空战数据集&amp;nbsp; &amp;nbsp;" style="strokeWidth=2;html=1;shape=mxgraph.flowchart.direct_data;rounded=0;sketch=0;fontFamily=Verdana;fontSize=12;" vertex="1" parent="WIyWlLk6GJQsqaUBKTNV-1">
          <mxGeometry x="41" y="352" width="113" height="60" as="geometry" />
        </mxCell>
        <mxCell id="fvwQdsqHaKLtyYbBZtsD-4" value="" style="edgeStyle=orthogonalEdgeStyle;curved=0;rounded=1;sketch=0;orthogonalLoop=1;jettySize=auto;html=1;fontFamily=Verdana;fontSize=12;" edge="1" parent="WIyWlLk6GJQsqaUBKTNV-1" source="fvwQdsqHaKLtyYbBZtsD-1" target="fvwQdsqHaKLtyYbBZtsD-3">
          <mxGeometry relative="1" as="geometry" />
        </mxCell>
        <mxCell id="fvwQdsqHaKLtyYbBZtsD-1" value="&#xa;&#xa;&lt;span style=&quot;color: rgb(0, 0, 0); font-family: verdana; font-size: 12px; font-style: normal; font-weight: 400; letter-spacing: normal; text-align: center; text-indent: 0px; text-transform: none; word-spacing: 0px; background-color: rgb(248, 249, 250); display: inline; float: none;&quot;&gt;数据预处理&lt;/span&gt;&#xa;&#xa;" style="html=1;rounded=0;strokeWidth=2;sketch=0;fontFamily=Verdana;fontSize=12;" vertex="1" parent="WIyWlLk6GJQsqaUBKTNV-1">
          <mxGeometry x="214" y="352" width="120" height="60" as="geometry" />
        </mxCell>
        <mxCell id="fvwQdsqHaKLtyYbBZtsD-6" value="" style="edgeStyle=orthogonalEdgeStyle;curved=0;rounded=1;sketch=0;orthogonalLoop=1;jettySize=auto;html=1;fontFamily=Verdana;fontSize=12;" edge="1" parent="WIyWlLk6GJQsqaUBKTNV-1" source="fvwQdsqHaKLtyYbBZtsD-3" target="fvwQdsqHaKLtyYbBZtsD-5">
          <mxGeometry relative="1" as="geometry">
            <Array as="points">
              <mxPoint x="574" y="372" />
              <mxPoint x="574" y="372" />
            </Array>
          </mxGeometry>
        </mxCell>
        <mxCell id="fvwQdsqHaKLtyYbBZtsD-3" value="LSTM网络训练" style="html=1;rounded=0;strokeWidth=2;sketch=0;fontFamily=Verdana;fontSize=12;" vertex="1" parent="WIyWlLk6GJQsqaUBKTNV-1">
          <mxGeometry x="394" y="352" width="120" height="60" as="geometry" />
        </mxCell>
        <mxCell id="fvwQdsqHaKLtyYbBZtsD-9" value="" style="edgeStyle=orthogonalEdgeStyle;curved=0;rounded=1;sketch=0;orthogonalLoop=1;jettySize=auto;html=1;fontFamily=Verdana;fontSize=12;" edge="1" parent="WIyWlLk6GJQsqaUBKTNV-1" source="fvwQdsqHaKLtyYbBZtsD-5" target="fvwQdsqHaKLtyYbBZtsD-3">
          <mxGeometry relative="1" as="geometry">
            <Array as="points">
              <mxPoint x="584" y="392" />
              <mxPoint x="584" y="392" />
            </Array>
          </mxGeometry>
        </mxCell>
        <mxCell id="fvwQdsqHaKLtyYbBZtsD-14" value="" style="edgeStyle=orthogonalEdgeStyle;curved=0;rounded=1;sketch=0;orthogonalLoop=1;jettySize=auto;html=1;fontFamily=Verdana;fontSize=12;" edge="1" parent="WIyWlLk6GJQsqaUBKTNV-1" source="fvwQdsqHaKLtyYbBZtsD-5" target="fvwQdsqHaKLtyYbBZtsD-13">
          <mxGeometry relative="1" as="geometry" />
        </mxCell>
        <mxCell id="fvwQdsqHaKLtyYbBZtsD-5" value="空战目标意图&lt;br style=&quot;font-size: 12px;&quot;&gt;预测模型" style="html=1;rounded=0;strokeWidth=2;sketch=0;fontFamily=Verdana;fontSize=12;" vertex="1" parent="WIyWlLk6GJQsqaUBKTNV-1">
          <mxGeometry x="624" y="352" width="120" height="60" as="geometry" />
        </mxCell>
        <mxCell id="fvwQdsqHaKLtyYbBZtsD-10" value="训练" style="text;html=1;align=center;verticalAlign=middle;resizable=0;points=[];autosize=1;fontFamily=Verdana;fontSize=12;" vertex="1" parent="WIyWlLk6GJQsqaUBKTNV-1">
          <mxGeometry x="547" y="355" width="34" height="17" as="geometry" />
        </mxCell>
        <mxCell id="fvwQdsqHaKLtyYbBZtsD-11" value="参数优化" style="text;html=1;align=center;verticalAlign=middle;resizable=0;points=[];autosize=1;fontFamily=Verdana;fontSize=12;" vertex="1" parent="WIyWlLk6GJQsqaUBKTNV-1">
          <mxGeometry x="535" y="405" width="58" height="17" as="geometry" />
        </mxCell>
        <mxCell id="fvwQdsqHaKLtyYbBZtsD-13" value="目标意图预测结果" style="html=1;rounded=0;strokeWidth=2;sketch=0;fontFamily=Verdana;fontSize=12;" vertex="1" parent="WIyWlLk6GJQsqaUBKTNV-1">
          <mxGeometry x="624" y="465" width="120" height="60" as="geometry" />
        </mxCell>
        <mxCell id="fvwQdsqHaKLtyYbBZtsD-23" value="" style="edgeStyle=orthogonalEdgeStyle;curved=0;rounded=1;sketch=0;orthogonalLoop=1;jettySize=auto;html=1;fontFamily=Verdana;fontSize=12;" edge="1" parent="WIyWlLk6GJQsqaUBKTNV-1" source="fvwQdsqHaKLtyYbBZtsD-15" target="fvwQdsqHaKLtyYbBZtsD-5">
          <mxGeometry relative="1" as="geometry" />
        </mxCell>
        <mxCell id="fvwQdsqHaKLtyYbBZtsD-15" value="数据预处理" style="html=1;rounded=0;strokeWidth=2;sketch=0;fontFamily=Verdana;fontSize=12;" vertex="1" parent="WIyWlLk6GJQsqaUBKTNV-1">
          <mxGeometry x="624" y="266" width="120" height="56" as="geometry" />
        </mxCell>
        <mxCell id="fvwQdsqHaKLtyYbBZtsD-22" value="" style="edgeStyle=orthogonalEdgeStyle;curved=0;rounded=1;sketch=0;orthogonalLoop=1;jettySize=auto;html=1;fontFamily=Verdana;fontSize=12;" edge="1" parent="WIyWlLk6GJQsqaUBKTNV-1" source="fvwQdsqHaKLtyYbBZtsD-17" target="fvwQdsqHaKLtyYbBZtsD-15">
          <mxGeometry relative="1" as="geometry" />
        </mxCell>
        <mxCell id="fvwQdsqHaKLtyYbBZtsD-17" value="数据修复" style="html=1;rounded=0;strokeWidth=2;sketch=0;fontFamily=Verdana;fontSize=12;" vertex="1" parent="WIyWlLk6GJQsqaUBKTNV-1">
          <mxGeometry x="624" y="189" width="120" height="52" as="geometry" />
        </mxCell>
        <mxCell id="fvwQdsqHaKLtyYbBZtsD-21" value="" style="edgeStyle=orthogonalEdgeStyle;curved=0;rounded=1;sketch=0;orthogonalLoop=1;jettySize=auto;html=1;fontFamily=Verdana;fontSize=12;" edge="1" parent="WIyWlLk6GJQsqaUBKTNV-1" target="fvwQdsqHaKLtyYbBZtsD-17">
          <mxGeometry relative="1" as="geometry">
            <mxPoint x="684" y="132" as="sourcePoint" />
          </mxGeometry>
        </mxCell>
        <mxCell id="fvwQdsqHaKLtyYbBZtsD-27" value="训练过程" style="text;html=1;align=center;verticalAlign=middle;resizable=0;points=[];autosize=1;fontSize=12;fontFamily=Verdana;fontStyle=1" vertex="1" parent="WIyWlLk6GJQsqaUBKTNV-1">
          <mxGeometry x="334" y="425" width="58" height="17" as="geometry" />
        </mxCell>
        <mxCell id="fvwQdsqHaKLtyYbBZtsD-28" value="预测过程" style="text;html=1;align=center;verticalAlign=middle;resizable=0;points=[];autosize=1;fontSize=12;fontFamily=Verdana;fontStyle=1" vertex="1" parent="WIyWlLk6GJQsqaUBKTNV-1">
          <mxGeometry x="655" y="536" width="58" height="17" as="geometry" />
        </mxCell>
        <mxCell id="fvwQdsqHaKLtyYbBZtsD-30" value="空战采集数据集&amp;nbsp; &amp;nbsp;" style="strokeWidth=2;html=1;shape=mxgraph.flowchart.direct_data;rounded=0;sketch=0;fontFamily=Verdana;fontSize=12;" vertex="1" parent="WIyWlLk6GJQsqaUBKTNV-1">
          <mxGeometry x="621.5" y="104" width="125" height="60" as="geometry" />
        </mxCell>
      </root>
    </mxGraphModel>
  </diagram>
</mxfile>
